<svg xmlns="http://www.w3.org/2000/svg" width="205.776" height="56.332" viewBox="0 0 205.776 56.332"><defs><style>.a{fill:#fff;}.b{fill:#fb0000;}</style></defs><g transform="translate(-4.4 -8.811)"><g transform="translate(4.4 28.603)"><path class="a" d="M4.4,94.5h6.721a51.7,51.7,0,0,1,9.1.508,6.2,6.2,0,0,1,3.88,2.656c.993,1.432,1.5,3.7,1.5,6.814,0,2.841-.346,4.758-1.062,5.728s-2.1,1.571-4.181,1.755a7.11,7.11,0,0,1,3.788,1.871,5.676,5.676,0,0,1,1.2,2.148,33.742,33.742,0,0,1,.231,5.4v9.632h-8.8V118.868a8.435,8.435,0,0,0-.462-3.626q-.45-.693-2.425-.693v16.468H4.4Zm9.493,6.259v8.13a4.082,4.082,0,0,0,2.24-.439c.439-.3.647-1.247.647-2.864v-2.009a3.075,3.075,0,0,0-.624-2.287A3.648,3.648,0,0,0,13.893,100.759Z" transform="translate(-4.4 -94.5)"/><path class="a" d="M5,94.6h6.721a51.526,51.526,0,0,1,9.1.508A6.094,6.094,0,0,1,24.494,97.9c.993,1.432,1.524,5.8,1.224,8.985-.254,2.841-.785,1.894-.739.554C25.326,95.224,5,94.6,5,94.6Z" transform="translate(-4.861 -94.577)"/></g><g transform="translate(29.276 28.603)"><path class="a" d="M112.1,94.5h15.845v7.322h-6.352v6.929h5.936V115.7h-5.936v8.015h6.975v7.322H112.1Z" transform="translate(-112.1 -94.5)"/><path class="a" d="M113.6,94.8l15.452.023v6.952C129.052,101.752,125.195,94.892,113.6,94.8Z" transform="translate(-113.254 -94.731)"/></g><g transform="translate(97.251 28.603)"><path class="a" d="M406.4,94.5h15.845v7.322h-6.352v6.929h5.936V115.7h-5.936v8.015h6.975v7.322H406.4V94.5Z" transform="translate(-406.4 -94.5)"/><path class="a" d="M408,94.8l15.452.023v6.952C423.452,101.752,419.595,94.892,408,94.8Z" transform="translate(-407.63 -94.731)"/></g><g transform="translate(48.47 28.603)"><path class="a" d="M195.2,94.5h9.562a23,23,0,0,1,5.959.6,6.806,6.806,0,0,1,3.141,1.755,6.091,6.091,0,0,1,1.432,2.795,24.454,24.454,0,0,1,.37,5.058V107.9a13.21,13.21,0,0,1-.716,5.1,4.881,4.881,0,0,1-2.656,2.448,12.42,12.42,0,0,1-5.035.855h-2.541v14.713h-9.493V94.5Zm9.516,6.259v9.285c.277.023.508.023.693.023a2.188,2.188,0,0,0,1.825-.647,4.683,4.683,0,0,0,.508-2.679v-3a3.588,3.588,0,0,0-.577-2.448A4.018,4.018,0,0,0,204.716,100.759Z" transform="translate(-195.2 -94.5)"/><path class="a" d="M195.4,95.246h.115c.832,0,6.052-.046,10.278-.046,4.6,0,8.061,1.016,9.054,4.042s.208,3.927-.624,2.379C213.416,100.05,207.157,95.985,195.4,95.246Z" transform="translate(-195.354 -95.038)"/></g><g transform="translate(71.428 27.079)"><path class="a" d="M317.028,104.576h-9.493V98.225a11.344,11.344,0,0,0-.3-3.465,1.3,1.3,0,0,0-1.34-.693,1.385,1.385,0,0,0-1.478.831,12.653,12.653,0,0,0-.323,3.6v16.977a11.7,11.7,0,0,0,.323,3.465,1.373,1.373,0,0,0,1.432.808,1.328,1.328,0,0,0,1.386-.808,13.885,13.885,0,0,0,.323-3.834v-4.55h9.493v1.432a27.983,27.983,0,0,1-.808,8.038,8.287,8.287,0,0,1-3.534,4.158,12.06,12.06,0,0,1-6.768,1.778,14.191,14.191,0,0,1-6.883-1.5,7.345,7.345,0,0,1-3.58-4.181,27.743,27.743,0,0,1-.878-8.038V101.551a46.184,46.184,0,0,1,.277-5.913,8.337,8.337,0,0,1,1.617-3.811,9.084,9.084,0,0,1,3.719-2.887,13.612,13.612,0,0,1,5.474-1.039,13.38,13.38,0,0,1,6.929,1.617,7.675,7.675,0,0,1,3.58,4.042,24.175,24.175,0,0,1,.855,7.53v3.488Z" transform="translate(-294.6 -87.9)"/><path class="a" d="M305.9,91.4a11.115,11.115,0,0,1,8.5-3.211c5.682.115,8.338,2.148,9.909,4.435s1.109,8.269-.878,4.435S319.366,85.511,305.9,91.4Z" transform="translate(-303.29 -88.121)"/></g><g transform="translate(114.574 28.603)"><path class="a" d="M502.557,94.5l-3.349,16.145,5.035,20.372h-8.8a119.548,119.548,0,0,1-2.887-13.3c-.231,2.31-.577,4.781-.993,7.345l-.9,5.959H481.4l3.442-20.372L481.4,94.5h9.193c.162,1.016.508,2.679.993,5.035.393,1.778.716,3.441.97,4.943l2.033-9.978Z" transform="translate(-481.4 -94.5)"/><path class="a" d="M539.7,94.723l7.6-.023-1.686,8.176S546.814,94.7,539.7,94.723Z" transform="translate(-526.234 -94.654)"/><path class="a" d="M492.154,94.7l1.524,7.876S490.491,94.653,483.4,94.7" transform="translate(-482.938 -94.653)"/></g><g transform="translate(140.859 8.811)"><g transform="translate(0.3 0)"><path class="a" d="M632.2,9.2h43.908S692.9,9.246,692.9,26.708c0,18.57-23.051,18.57-23.051,18.57L657.492,33.914h13s4.712-.97,4.643-6.56a5.78,5.78,0,0,0-4.6-5.89H645.989Z" transform="translate(-623.954 -9.11)"/><path class="a" d="M777.108,84.911c.162-.3,0,.67-.023.993-.808,17.577-23.028,17.485-23.028,17.485L741.7,91.909C741.723,91.909,761.7,111.68,777.108,84.911Z" transform="translate(-708.163 -67.29)"/><path class="a" d="M612.992,181.6,596.5,198.022h25.107l3.7-3.9Z" transform="translate(-596.5 -141.69)"/><path class="a" d="M632.2,8.9a3.694,3.694,0,0,1,2.98.624c15.544,10.348,39.1,8.708,40.236,13.674,2.541,11.295-5.035,10.509-4.943,10.463,1.894-.577,4.712-2.079,4.666-6.7a5.618,5.618,0,0,0-4.6-5.8H645.989Z" transform="translate(-623.954 -8.811)"/><path class="a" d="M612.992,181.6,596.5,198.022h25.107s.416-.739-.37-.716c-4.3.208-25.245,1.363-8.407-13.951C613.546,182.709,612.992,181.6,612.992,181.6Z" transform="translate(-596.5 -141.69)"/></g><path class="b" d="M595.2,94l33.145,28.618-3.9-7.853,32.2,15.683-32.983-28.364,3.418,7.045L595.916,94.393" transform="translate(-595.2 -74.324)"/></g></g></svg>