<svg xmlns="http://www.w3.org/2000/svg" width="24.394" height="24.394" viewBox="0 0 24.394 24.394"><defs><style>.a{fill:#fbbb00;}.b{fill:#518ef8;}.c{fill:#28b446;}.d{fill:#f14336;}</style></defs><path class="a" d="M5.406,146.422l-.849,3.17-3.1.066a12.218,12.218,0,0,1-.09-11.389h0l2.763.507,1.21,2.746a7.279,7.279,0,0,0,.068,4.9Z" transform="translate(0 -131.68)"/><path class="b" d="M273.344,208.176A12.192,12.192,0,0,1,269,219.966h0l-3.48-.178-.493-3.075A7.269,7.269,0,0,0,268.15,213h-6.522v-4.825h11.716Z" transform="translate(-249.163 -198.258)"/><path class="c" d="M48.887,316.375h0a12.2,12.2,0,0,1-18.379-3.731l3.953-3.236a7.254,7.254,0,0,0,10.453,3.714Z" transform="translate(-29.055 -294.668)"/><path class="d" d="M47.242,2.808,43.291,6.043A7.253,7.253,0,0,0,32.6,9.841L28.625,6.588h0a12.2,12.2,0,0,1,18.618-3.78Z" transform="translate(-27.26)"/></svg>